<svg xmlns="http://www.w3.org/2000/svg" xmlns:xlink="http://www.w3.org/1999/xlink" id="图层_1" x="0" y="0" version="1.1" viewBox="0 0 355.1 278.8" xml:space="preserve" style="enable-background:new 0 0 355.1 278.8"><style type="text/css">.st0{fill:#4a8ac9}.st1{fill:#fff}</style><g><path d="M315.9,140.3" class="st0"/><path d="M315.9,137.7" class="st0"/><path d="M315.9,139.6" class="st0"/><path d="M315.9,137.1" class="st0"/><path d="M315.9,139.6" class="st0"/><path d="M315.9,137.1" class="st0"/><path d="M315.9,139.6" class="st0"/><path d="M315.9,137.1" class="st0"/><path d="M315.9,140.3" class="st0"/><path d="M315.9,137.7" class="st0"/><path d="M315.9,139.6" class="st0"/><path d="M315.9,137.1" class="st0"/><path d="M315.9,139.6" class="st0"/><path d="M315.9,137.1" class="st0"/><path d="M315.9,139.6" class="st0"/><path d="M315.9,137.1" class="st0"/><path d="M315.9,140.3" class="st0"/><path d="M315.9,137.7" class="st0"/><path d="M315.9,139.6" class="st0"/><path d="M315.9,137.1" class="st0"/><path d="M315.9,139.6" class="st0"/><path d="M315.9,137.1" class="st0"/><path d="M315.9,139.6" class="st0"/><path d="M315.9,137.1" class="st0"/><path d="M315.9,140.3" class="st0"/><path d="M315.9,137.7" class="st0"/><path d="M315.9,139.6" class="st0"/><path d="M315.9,137.1" class="st0"/><path d="M315.9,139.6" class="st0"/><path d="M315.9,137.1" class="st0"/><path d="M315.9,139.6" class="st0"/><path d="M315.9,137.1" class="st0"/><path d="M315.9,140.3" class="st0"/><path d="M315.9,137.7" class="st0"/><path d="M315.9,139.6" class="st0"/><path d="M315.9,137.1" class="st0"/><path d="M315.9,139.6" class="st0"/><path d="M315.9,137.1" class="st0"/><path d="M315.9,139.6" class="st0"/><path d="M315.9,137.1" class="st0"/><path d="M315.9,140.3" class="st0"/><path d="M315.9,137.7" class="st0"/><path d="M315.9,139.6" class="st0"/><path d="M315.9,137.1" class="st0"/><path d="M315.9,139.6" class="st0"/><path d="M315.9,137.1" class="st0"/><path d="M315.9,139.6" class="st0"/><path d="M315.9,137.1" class="st0"/><path d="M290.9,75.3l-112.2,0l-56.1,97.2l56.1,97.2l112.2,0l56.1-97.2L290.9,75.3z M272.6,238l-75.6,0l-37.8-65.4 l37.8-65.4l75.6,0l37.8,65.4L272.6,238z" class="st1"/><g><g><polygon points="197 106.9 159.2 172.3 177.4 203.9 233.4 106.9" class="st1"/><polygon points="122.5 172.1 122.6 172.1 83.5 172.2 45.7 105.7 83.4 39.2 159 39.2 178.6 73.9 178.6 74.6 215.2 74.6 177.3 9.3 65.1 9.5 9 106.5 65.1 203.4 140.8 203.4" class="st1"/></g><polygon points="196.3 106.8 158.6 172.2 83.1 172.2 45.4 106.8 8.7 106.8 64.8 204 177 203.9 233 106.8" class="st1"/></g><polyline points="234.1 107.2 196.7 107.1 182 132.1 201.1 114.1 234.1 107.2" class="st1"/><polygon points="141.1 203.9 145.4 211.4 176.9 204" class="st1"/></g></svg>