<svg xmlns="http://www.w3.org/2000/svg" xmlns:xlink="http://www.w3.org/1999/xlink" id="图层_1" x="0" y="0" version="1.1" viewBox="0 0 400 307.1" xml:space="preserve" style="enable-background:new 0 0 400 307.1"><style type="text/css">.st1{fill:url(#SVGID_1_)}.st2{fill:#edd42c}.st3{fill:#edc02c}.st4{fill:#1a2f51}</style><g><linearGradient id="SVGID_1_" x1="162.144" x2="373.066" y1="138.917" y2="246.387" gradientTransform="matrix(1 -2.100000e-03 2.100000e-03 1 -1 0.9709)" gradientUnits="userSpaceOnUse"><stop offset="0" style="stop-color:#0b5382"/><stop offset="1" style="stop-color:#104060"/></linearGradient><path d="M333.3,78.1l-132.7,0l-66.3,114.9L200.7,308l132.7,0L399.7,193L333.3,78.1z M311.7,270.4l-89.3,0l-44.7-77.4 l44.7-77.4l89.4,0l44.7,77.4L311.7,270.4z" class="st1"/><g><g><polygon points="222.3 115.4 177.7 192.8 199.2 230.1 265.4 115.4" class="st2"/><polygon points="134.3 192.5 134.4 192.5 88.1 192.6 43.4 114 88.1 35.4 177.4 35.4 200.6 76.4 200.6 77.3 243.9 77.3 199.1 .1 66.4 .2 0 114.9 66.4 229.6 155.9 229.6" class="st2"/></g><polygon points="221.5 115.3 177 192.7 87.7 192.6 43.1 115.3 -.3 115.3 66 230.3 198.7 230.1 264.9 115.3" class="st2"/></g><polyline points="266.3 115.8 222 115.7 204.7 145.3 227.2 124 266.3 115.8" class="st3"/><polygon points="156.3 230.2 161.3 239 198.6 230.3" class="st4"/></g></svg>